<?xml version="1.0" encoding="UTF-8" standalone="no"?>
<svg
   xmlns:dc="http://purl.org/dc/elements/1.1/"
   xmlns:cc="http://creativecommons.org/ns#"
   xmlns:rdf="http://www.w3.org/1999/02/22-rdf-syntax-ns#"
   xmlns:svg="http://www.w3.org/2000/svg"
   xmlns="http://www.w3.org/2000/svg"
   xmlns:sodipodi="http://sodipodi.sourceforge.net/DTD/sodipodi-0.dtd"
   xmlns:inkscape="http://www.inkscape.org/namespaces/inkscape"
   width="100%"
   height="100%"
   viewBox="0 0 1501 1501"
   version="1.1"
   xml:space="preserve"
   style="fill-rule:evenodd;clip-rule:evenodd;stroke-linejoin:round;stroke-miterlimit:2;"
   id="svg1027"
   sodipodi:docname="OlenTegenKanker.svg"
   inkscape:export-filename="/Users/nelerober/Documents/Non-work/Theater Bank Vooruit/bankvooruit.github.io/res/goede_doelen/OlenTegenKanker.png"
   inkscape:export-xdpi="95"
   inkscape:export-ydpi="95"
   inkscape:version="1.0.1 (c497b03c, 2020-09-10)"><metadata
     id="metadata1031"><rdf:RDF><cc:Work
         rdf:about=""><dc:format>image/svg+xml</dc:format><dc:type
           rdf:resource="http://purl.org/dc/dcmitype/StillImage" /></cc:Work></rdf:RDF></metadata><sodipodi:namedview
     pagecolor="#ffffff"
     bordercolor="#666666"
     borderopacity="1"
     objecttolerance="10"
     gridtolerance="10"
     guidetolerance="10"
     inkscape:pageopacity="0"
     inkscape:pageshadow="2"
     inkscape:window-width="1680"
     inkscape:window-height="997"
     id="namedview1029"
     showgrid="false"
     inkscape:zoom="0.47435043"
     inkscape:cx="750.5"
     inkscape:cy="750.5"
     inkscape:window-x="0"
     inkscape:window-y="25"
     inkscape:window-maximized="1"
     inkscape:current-layer="svg1027" /><rect
     id="Logo3"
     x="0"
     y="0"
     width="1500"
     height="1500"
     style="fill:none;" /><g
     id="g880"><path
       d="M1447.3,750.014c0,375.351 -304.299,679.622 -679.664,679.622c-375.351,0 -679.636,-304.271 -679.636,-679.622c0,-375.365 304.285,-679.65 679.636,-679.65c375.365,0 679.664,304.285 679.664,679.65Z"
       style="fill:url(#_Radial1);fill-rule:nonzero;"
       id="path834" /><path
       d="M767.639,107.561c-354.237,0 -642.439,288.202 -642.439,642.453c0,354.237 288.202,642.425 642.439,642.425c354.251,0 642.467,-288.188 642.467,-642.425c0,-354.251 -288.216,-642.453 -642.467,-642.453Zm0,1305.17c-365.423,0 -662.728,-297.292 -662.728,-662.715c0,-365.437 297.305,-662.743 662.728,-662.743c365.437,0 662.756,297.306 662.756,662.743c0,365.423 -297.319,662.715 -662.756,662.715Z"
       style="fill:url(#_Linear2);fill-rule:nonzero;"
       id="path836" /><g
       id="g852"><g
         id="g844"><path
           d="M587.296,360.362l-41.305,0l0,407.375l79.618,0l0,-368.435c0,-20.968 -17.361,-38.94 -38.313,-38.94Z"
           style="fill:url(#_Linear3);fill-rule:nonzero;"
           id="path838" /><path
           d="M979.73,670.708l-58.721,0c-10.785,0 -19.773,3.599 -26.963,11.396c-15.579,14.995 -32.956,22.793 -51.531,22.793c-38.947,0 -59.919,-24.592 -62.915,-73.177l204.924,0c5.992,-124.028 -41.345,-185.674 -142.009,-185.674c-96.439,0.599 -144.929,54.464 -144.929,162.337c0,107.886 47.892,163.551 143.731,166.544c77.895,0 121.037,-37.11 138.413,-104.219Zm-138.413,-159.425c34.154,0 53.927,21.597 58.721,63.589l-119.239,0c5.992,-41.992 26.364,-63.589 60.518,-63.589Z"
           style="fill:url(#_Linear4);fill-rule:nonzero;"
           id="path840" /><path
           d="M1321.27,767.737l0,-186.349c0.599,-90.45 -43.7,-135.342 -134.181,-135.342c-90.483,0 -135.979,44.892 -135.979,135.342l0,186.349l80.816,0l0,-202.527c0.599,-32.955 18.587,-49.133 53.964,-49.133c35.376,0 53.364,16.178 55.163,49.133l0,162.98c0,25.166 13.17,37.749 39.51,39.547l40.707,0Z"
           style="fill:url(#_Linear5);fill-rule:nonzero;"
           id="path842" /></g><path
         d="M473.707,293.892c-40.125,-25.898 -86.509,-3.244 -133.969,24.712c-7.14,33.737 -14.622,74.999 -19.444,120.762c49.557,-32.105 97.879,-46.907 137.978,-9.494c24.83,-100.334 12.88,-98.225 15.435,-135.98Z"
         style="fill:url(#_Linear6);"
         id="path846" /><path
         d="M339.796,318.27l-0.006,-0.055c-63.904,106.957 -119.653,283.044 -83.424,464.118c16.289,89.827 56.212,188.842 114.315,290.028c49.664,46.872 75.544,118.016 196.797,110.446c-28.559,-57.443 -18.73,-92.109 -19.144,-161.108c-171.529,-70.145 -200.823,-247.218 -223.29,-376.767c-21.32,-136.584 -2.682,-234.492 14.752,-326.662Z"
         style="fill:url(#_Linear7);"
         id="path848" /><path
         d="M473.754,293.435c0,0 -5.591,246.589 -154.124,442.15c0,0 -336.113,366.733 -254.017,685.581c0,0 118.433,-55.873 215.033,-14.273c-48.186,-147.693 -18.351,-400.696 128.275,-635.623c146.637,-234.913 64.833,-477.835 64.833,-477.835Z"
         style="fill:url(#_Linear8);"
         id="path850" /></g><g
       id="g864"><path
         d="M588.038,852.002l0,10.46l43.844,0l0,121.935l30.293,0l0,-121.935l43.845,0l0,-26.367l-102.713,0c-8.507,0 -15.269,7.409 -15.269,15.907Z"
         style="fill:url(#_Linear9);fill-rule:nonzero;"
         id="path854" /><path
         d="M808.978,949.075l-21.377,0c-3.927,0 -7.199,1.31 -9.816,4.148c-5.672,5.459 -11.997,8.298 -18.759,8.298c-14.179,0 -21.814,-8.953 -22.904,-26.64l74.601,0c2.181,-45.151 -15.051,-67.593 -51.697,-67.593c-35.109,0.218 -52.761,19.827 -52.761,59.097c0,39.276 17.434,59.54 52.324,60.63c28.357,0 44.063,-13.51 50.389,-37.94Zm-50.389,-58.038c12.434,0 19.632,7.862 21.377,23.149l-43.408,0c2.181,-15.287 9.598,-23.149 22.031,-23.149Z"
         style="fill:url(#_Linear10);fill-rule:nonzero;"
         id="path856" /><path
         d="M876.612,961.085c-15.714,0 -23.571,-11.13 -24.226,-33.388c0,-23.349 8.075,-34.915 24.662,-34.915c16.587,0 24.663,11.566 24.445,34.915c-0.873,22.258 -9.167,33.388 -24.881,33.388Zm-8.075,25.494c14.404,0 25.535,-5.666 32.956,-16.996c0,11.984 0,11.766 0,11.766c0,17.897 -7.858,26.852 -23.135,26.852c-12.004,0 -18.77,-3.931 -20.734,-12.231l-32.044,0c6.756,24.433 23.319,36.634 49.504,36.634c36.869,-0.653 55.175,-15.252 55.175,-44.278l0,-68.267c0,-34.685 -18.088,-51.68 -54.084,-51.462c-35.775,0.653 -53.646,19.827 -53.646,58.227c0,39.708 15.255,59.755 46.008,59.755Z"
         style="fill:url(#_Linear11);fill-rule:nonzero;"
         id="path858" /><path
         d="M1045.65,949.075l-21.377,0c-3.927,0 -7.199,1.31 -9.816,4.148c-5.672,5.459 -11.997,8.298 -18.76,8.298c-14.178,0 -21.813,-8.953 -22.903,-26.64l74.601,0c2.181,-45.151 -15.051,-67.593 -51.698,-67.593c-35.108,0.218 -52.76,19.827 -52.76,59.097c0,39.276 17.434,59.54 52.324,60.63c28.357,0 44.063,-13.51 50.389,-37.94Zm-50.389,-58.038c12.434,0 19.632,7.862 21.377,23.149l-43.408,0c2.181,-15.287 9.598,-23.149 22.031,-23.149Z"
         style="fill:url(#_Linear12);fill-rule:nonzero;"
         id="path860" /><path
         d="M1159.3,984.397l0,-67.839c0.218,-32.928 -15.908,-49.27 -48.847,-49.27c-32.94,0 -49.503,16.342 -49.503,49.27l0,67.839l29.421,0l0,-73.728c0.218,-11.997 6.766,-17.887 19.645,-17.887c12.879,0 19.427,5.89 20.082,17.887l0,59.332c0,9.161 4.794,13.742 14.383,14.396l14.819,0Z"
         style="fill:url(#_Linear13);fill-rule:nonzero;"
         id="path862" /></g><g
       id="g878"><path
         d="M588.038,1042.3l0,132.381l30.293,0l0,-51.905c0,-5.016 2.835,-8.724 8.507,-10.687c5.671,-1.963 11.779,1.527 18.323,10.25l37.518,52.342l37.083,0l-64.349,-88.109l59.114,-60.193l-38.392,0l-57.804,61.066l0,-61.066l-15.038,0c-8.499,0 -15.255,7.415 -15.255,15.921Z"
         style="fill:url(#_Linear14);fill-rule:nonzero;"
         id="path866" /><path
         d="M761.871,1153.3c-9.168,0 -13.97,-4.363 -14.625,-13.525c0,-8.507 5.894,-13.96 17.463,-16.141c8.513,-1.745 16.371,-4.145 23.137,-6.981l0,10.689c0,16.36 -9.822,25.958 -25.975,25.958Zm6.767,-71.984c12.005,0 18.117,3.272 18.772,9.816c0,6.326 -6.33,10.034 -18.772,11.561c-29.237,2.836 -49.286,10.252 -49.94,37.955c0,25.521 19.178,38.391 46.884,36.21c31.199,-2.182 50.376,-16.36 50.376,-48.207l0,-39.264c-0.654,-21.362 -16.78,-31.82 -48.63,-31.82c-26.619,0 -41.656,10.458 -45.143,31.82l28.99,0c1.528,-5.453 7.204,-8.071 17.463,-8.071Z"
         style="fill:url(#_Linear15);fill-rule:nonzero;"
         id="path868" /><path
         d="M928.296,1174.68l0,-67.839c0.218,-32.928 -15.909,-49.27 -48.848,-49.27c-32.94,0 -49.502,16.342 -49.502,49.27l0,67.839l29.42,0l0,-73.728c0.218,-11.997 6.767,-17.887 19.645,-17.887c12.879,0 19.428,5.89 20.082,17.887l0,59.332c0,9.161 4.795,13.742 14.384,14.396l14.819,0Z"
         style="fill:url(#_Linear16);fill-rule:nonzero;"
         id="path870" /><path
         d="M956.448,1026.38l-15.037,0l0,148.302l28.984,0l0,-42.091c0,-3.054 1.527,-5.016 4.581,-5.671c3.708,0 7.416,3.272 11.125,9.814l20.504,37.948l34.901,0l-40.354,-68.48l39.918,-42.746l-34.901,0l-35.774,41.001l0,-63.901c0,-7.633 -6.32,-14.176 -13.947,-14.176Z"
         style="fill:url(#_Linear17);fill-rule:nonzero;"
         id="path872" /><path
         d="M1141.19,1139.36l-21.377,0c-3.926,0 -7.198,1.31 -9.815,4.148c-5.672,5.459 -11.998,8.298 -18.76,8.298c-14.178,0 -21.813,-8.953 -22.904,-26.639l74.601,0c2.182,-45.152 -15.051,-67.594 -51.697,-67.594c-35.108,0.218 -52.76,19.827 -52.76,59.098c0,39.275 17.434,59.54 52.324,60.629c28.357,0 44.063,-13.51 50.388,-37.94Zm-50.388,-58.038c12.433,0 19.632,7.862 21.377,23.149l-43.408,0c2.181,-15.287 9.597,-23.149 22.031,-23.149Z"
         style="fill:url(#_Linear18);fill-rule:nonzero;"
         id="path874" /><path
         d="M1156.49,1174.68l29.42,0l0,-59.986c0,-16.796 8.071,-25.303 24.213,-25.303l9.816,0l0,-30.075l-4.145,0c-38.601,0 -58.432,18.524 -59.304,55.814l0,59.55Z"
         style="fill:url(#_Linear19);fill-rule:nonzero;"
         id="path876" /></g></g><defs
     id="defs1025"><radialGradient
       id="_Radial1"
       cx="0"
       cy="0"
       r="1"
       gradientUnits="userSpaceOnUse"
       gradientTransform="matrix(679.65,0,0,679.636,767.653,750)"><stop
         offset="0"
         style="stop-color:#fff;stop-opacity:1"
         id="stop882" /><stop
         offset="1"
         style="stop-color:#f1f1f1;stop-opacity:1"
         id="stop884" /></radialGradient><linearGradient
       id="_Linear2"
       x1="0"
       y1="0"
       x2="1"
       y2="0"
       gradientUnits="userSpaceOnUse"
       gradientTransform="matrix(1322.1,-700.897,700.882,1322.08,125.2,1238.11)"><stop
         offset="0"
         style="stop-color:#ce066e;stop-opacity:1"
         id="stop887" /><stop
         offset="1"
         style="stop-color:#5813e1;stop-opacity:1"
         id="stop889" /></linearGradient><linearGradient
       id="_Linear3"
       x1="0"
       y1="0"
       x2="1"
       y2="0"
       gradientUnits="userSpaceOnUse"
       gradientTransform="matrix(1268.58,-1138.65,1138.65,1268.58,52.6972,1421.17)"><stop
         offset="0"
         style="stop-color:#25ec0b;stop-opacity:1"
         id="stop892" /><stop
         offset="0.11"
         style="stop-color:#b6e511;stop-opacity:1"
         id="stop894" /><stop
         offset="0.23"
         style="stop-color:#e4e313;stop-opacity:1"
         id="stop896" /><stop
         offset="0.44"
         style="stop-color:#e70654;stop-opacity:1"
         id="stop898" /><stop
         offset="0.7"
         style="stop-color:#5f04e3;stop-opacity:1"
         id="stop900" /><stop
         offset="1"
         style="stop-color:#07c7c6;stop-opacity:1"
         id="stop902" /></linearGradient><linearGradient
       id="_Linear4"
       x1="0"
       y1="0"
       x2="1"
       y2="0"
       gradientUnits="userSpaceOnUse"
       gradientTransform="matrix(1268.58,-1138.65,1138.65,1268.58,52.6972,1421.17)"><stop
         offset="0"
         style="stop-color:#25ec0b;stop-opacity:1"
         id="stop905" /><stop
         offset="0.11"
         style="stop-color:#b6e511;stop-opacity:1"
         id="stop907" /><stop
         offset="0.23"
         style="stop-color:#e4e313;stop-opacity:1"
         id="stop909" /><stop
         offset="0.44"
         style="stop-color:#e70654;stop-opacity:1"
         id="stop911" /><stop
         offset="0.7"
         style="stop-color:#5f04e3;stop-opacity:1"
         id="stop913" /><stop
         offset="1"
         style="stop-color:#07c7c6;stop-opacity:1"
         id="stop915" /></linearGradient><linearGradient
       id="_Linear5"
       x1="0"
       y1="0"
       x2="1"
       y2="0"
       gradientUnits="userSpaceOnUse"
       gradientTransform="matrix(1268.58,-1138.65,1138.65,1268.58,52.6972,1421.17)"><stop
         offset="0"
         style="stop-color:#25ec0b;stop-opacity:1"
         id="stop918" /><stop
         offset="0.11"
         style="stop-color:#b6e511;stop-opacity:1"
         id="stop920" /><stop
         offset="0.23"
         style="stop-color:#e4e313;stop-opacity:1"
         id="stop922" /><stop
         offset="0.44"
         style="stop-color:#e70654;stop-opacity:1"
         id="stop924" /><stop
         offset="0.7"
         style="stop-color:#5f04e3;stop-opacity:1"
         id="stop926" /><stop
         offset="1"
         style="stop-color:#07c7c6;stop-opacity:1"
         id="stop928" /></linearGradient><linearGradient
       id="_Linear6"
       x1="0"
       y1="0"
       x2="1"
       y2="0"
       gradientUnits="userSpaceOnUse"
       gradientTransform="matrix(1268.58,-1138.65,1138.65,1268.58,52.6972,1421.17)"><stop
         offset="0"
         style="stop-color:#25ec0b;stop-opacity:1"
         id="stop931" /><stop
         offset="0.11"
         style="stop-color:#b6e511;stop-opacity:1"
         id="stop933" /><stop
         offset="0.23"
         style="stop-color:#e4e313;stop-opacity:1"
         id="stop935" /><stop
         offset="0.44"
         style="stop-color:#e70654;stop-opacity:1"
         id="stop937" /><stop
         offset="0.7"
         style="stop-color:#5f04e3;stop-opacity:1"
         id="stop939" /><stop
         offset="1"
         style="stop-color:#07c7c6;stop-opacity:1"
         id="stop941" /></linearGradient><linearGradient
       id="_Linear7"
       x1="0"
       y1="0"
       x2="1"
       y2="0"
       gradientUnits="userSpaceOnUse"
       gradientTransform="matrix(1268.58,-1138.65,1138.65,1268.58,52.6972,1421.17)"><stop
         offset="0"
         style="stop-color:#25ec0b;stop-opacity:1"
         id="stop944" /><stop
         offset="0.11"
         style="stop-color:#b6e511;stop-opacity:1"
         id="stop946" /><stop
         offset="0.23"
         style="stop-color:#e4e313;stop-opacity:1"
         id="stop948" /><stop
         offset="0.44"
         style="stop-color:#e70654;stop-opacity:1"
         id="stop950" /><stop
         offset="0.7"
         style="stop-color:#5f04e3;stop-opacity:1"
         id="stop952" /><stop
         offset="1"
         style="stop-color:#07c7c6;stop-opacity:1"
         id="stop954" /></linearGradient><linearGradient
       id="_Linear8"
       x1="0"
       y1="0"
       x2="1"
       y2="0"
       gradientUnits="userSpaceOnUse"
       gradientTransform="matrix(1268.58,-1138.65,1138.65,1268.58,52.6972,1421.17)"><stop
         offset="0"
         style="stop-color:#25ec0b;stop-opacity:1"
         id="stop957" /><stop
         offset="0.11"
         style="stop-color:#b6e511;stop-opacity:1"
         id="stop959" /><stop
         offset="0.23"
         style="stop-color:#e4e313;stop-opacity:1"
         id="stop961" /><stop
         offset="0.44"
         style="stop-color:#e70654;stop-opacity:1"
         id="stop963" /><stop
         offset="0.7"
         style="stop-color:#5f04e3;stop-opacity:1"
         id="stop965" /><stop
         offset="1"
         style="stop-color:#07c7c6;stop-opacity:1"
         id="stop967" /></linearGradient><linearGradient
       id="_Linear9"
       x1="0"
       y1="0"
       x2="1"
       y2="0"
       gradientUnits="userSpaceOnUse"
       gradientTransform="matrix(571.262,0,0,196.509,588.038,934.35)"><stop
         offset="0"
         style="stop-color:#ce066e;stop-opacity:1"
         id="stop970" /><stop
         offset="1"
         style="stop-color:#5813e1;stop-opacity:1"
         id="stop972" /></linearGradient><linearGradient
       id="_Linear10"
       x1="0"
       y1="0"
       x2="1"
       y2="0"
       gradientUnits="userSpaceOnUse"
       gradientTransform="matrix(571.262,0,0,196.509,588.038,934.35)"><stop
         offset="0"
         style="stop-color:#ce066e;stop-opacity:1"
         id="stop975" /><stop
         offset="1"
         style="stop-color:#5813e1;stop-opacity:1"
         id="stop977" /></linearGradient><linearGradient
       id="_Linear11"
       x1="0"
       y1="0"
       x2="1"
       y2="0"
       gradientUnits="userSpaceOnUse"
       gradientTransform="matrix(571.262,0,0,196.509,588.038,934.35)"><stop
         offset="0"
         style="stop-color:#ce066e;stop-opacity:1"
         id="stop980" /><stop
         offset="1"
         style="stop-color:#5813e1;stop-opacity:1"
         id="stop982" /></linearGradient><linearGradient
       id="_Linear12"
       x1="0"
       y1="0"
       x2="1"
       y2="0"
       gradientUnits="userSpaceOnUse"
       gradientTransform="matrix(571.262,0,0,196.509,588.038,934.35)"><stop
         offset="0"
         style="stop-color:#ce066e;stop-opacity:1"
         id="stop985" /><stop
         offset="1"
         style="stop-color:#5813e1;stop-opacity:1"
         id="stop987" /></linearGradient><linearGradient
       id="_Linear13"
       x1="0"
       y1="0"
       x2="1"
       y2="0"
       gradientUnits="userSpaceOnUse"
       gradientTransform="matrix(571.262,0,0,196.509,588.038,934.35)"><stop
         offset="0"
         style="stop-color:#ce066e;stop-opacity:1"
         id="stop990" /><stop
         offset="1"
         style="stop-color:#5813e1;stop-opacity:1"
         id="stop992" /></linearGradient><linearGradient
       id="_Linear14"
       x1="0"
       y1="0"
       x2="1"
       y2="0"
       gradientUnits="userSpaceOnUse"
       gradientTransform="matrix(631.9,0,0,150.92,588.038,1101.84)"><stop
         offset="0"
         style="stop-color:#ce066e;stop-opacity:1"
         id="stop995" /><stop
         offset="1"
         style="stop-color:#5813e1;stop-opacity:1"
         id="stop997" /></linearGradient><linearGradient
       id="_Linear15"
       x1="0"
       y1="0"
       x2="1"
       y2="0"
       gradientUnits="userSpaceOnUse"
       gradientTransform="matrix(631.9,0,0,150.92,588.038,1101.84)"><stop
         offset="0"
         style="stop-color:#ce066e;stop-opacity:1"
         id="stop1000" /><stop
         offset="1"
         style="stop-color:#5813e1;stop-opacity:1"
         id="stop1002" /></linearGradient><linearGradient
       id="_Linear16"
       x1="0"
       y1="0"
       x2="1"
       y2="0"
       gradientUnits="userSpaceOnUse"
       gradientTransform="matrix(631.9,0,0,150.92,588.038,1101.84)"><stop
         offset="0"
         style="stop-color:#ce066e;stop-opacity:1"
         id="stop1005" /><stop
         offset="1"
         style="stop-color:#5813e1;stop-opacity:1"
         id="stop1007" /></linearGradient><linearGradient
       id="_Linear17"
       x1="0"
       y1="0"
       x2="1"
       y2="0"
       gradientUnits="userSpaceOnUse"
       gradientTransform="matrix(631.9,0,0,150.92,588.038,1101.84)"><stop
         offset="0"
         style="stop-color:#ce066e;stop-opacity:1"
         id="stop1010" /><stop
         offset="1"
         style="stop-color:#5813e1;stop-opacity:1"
         id="stop1012" /></linearGradient><linearGradient
       id="_Linear18"
       x1="0"
       y1="0"
       x2="1"
       y2="0"
       gradientUnits="userSpaceOnUse"
       gradientTransform="matrix(631.9,0,0,150.92,588.038,1101.84)"><stop
         offset="0"
         style="stop-color:#ce066e;stop-opacity:1"
         id="stop1015" /><stop
         offset="1"
         style="stop-color:#5813e1;stop-opacity:1"
         id="stop1017" /></linearGradient><linearGradient
       id="_Linear19"
       x1="0"
       y1="0"
       x2="1"
       y2="0"
       gradientUnits="userSpaceOnUse"
       gradientTransform="matrix(631.9,0,0,150.92,588.038,1101.84)"><stop
         offset="0"
         style="stop-color:#ce066e;stop-opacity:1"
         id="stop1020" /><stop
         offset="1"
         style="stop-color:#5813e1;stop-opacity:1"
         id="stop1022" /></linearGradient></defs></svg>
